<svg xmlns="http://www.w3.org/2000/svg" viewBox="0 0 200 150">
  <!-- Schwein/Rind Silhouette basierend auf dem hochgeladenen Bild -->
  <g fill="#000000" stroke="#000000" stroke-width="2">
    <!-- Körper -->
    <ellipse cx="100" cy="80" rx="60" ry="35"/>

    <!-- Kopf -->
    <ellipse cx="40" cy="75" rx="28" ry="25"/>

    <!-- Schnauze -->
    <ellipse cx="20" cy="75" rx="12" ry="10"/>
    <circle cx="17" cy="72" r="2" fill="#000"/>
    <circle cx="17" cy="78" r="2" fill="#000"/>

    <!-- Ohren -->
    <ellipse cx="35" cy="58" rx="8" ry="12" transform="rotate(-15 35 58)"/>
    <ellipse cx="48" cy="58" rx="8" ry="12" transform="rotate(15 48 58)"/>

    <!-- Beine -->
    <rect x="55" y="110" width="10" height="30" rx="5"/>
    <rect x="75" y="110" width="10" height="30" rx="5"/>
    <rect x="110" y="110" width="10" height="30" rx="5"/>
    <rect x="130" y="110" width="10" height="30" rx="5"/>

    <!-- Schwanz -->
    <path d="M 155 75 Q 170 70 175 55" fill="none" stroke-width="4" stroke-linecap="round"/>

    <!-- Flecken (wie im Originalbild) -->
    <ellipse cx="80" cy="70" rx="12" ry="10" opacity="0.4"/>
    <ellipse cx="110" cy="75" rx="15" ry="12" opacity="0.4"/>
    <ellipse cx="120" cy="90" rx="10" ry="8" opacity="0.4"/>
  </g>
</svg>
